<?xml version="1.0" standalone="no"?>
<!DOCTYPE svg PUBLIC "-//W3C//DTD SVG 20010904//EN"
 "http://www.w3.org/TR/2001/REC-SVG-20010904/DTD/svg10.dtd">
<svg version="1.0" xmlns="http://www.w3.org/2000/svg"
 width="960.000000pt" height="960.000000pt" viewBox="0 0 960.000000 960.000000"
 preserveAspectRatio="xMidYMid meet">

<g transform="translate(0.000000,960.000000) scale(0.100000,-0.100000)"
fill="#000000" stroke="none">
<path d="M4646 8099 c-148 -10 -391 -48 -528 -84 -51 -14 -101 -25 -111 -25
-26 0 -234 -74 -332 -117 -206 -92 -335 -159 -455 -238 -72 -47 -133 -85 -135
-85 -5 0 -61 -44 -195 -153 -100 -81 -298 -281 -390 -392 -40 -49 -80 -97 -87
-105 -41 -46 -242 -360 -243 -379 0 -8 -13 -35 -28 -60 -36 -60 -145 -299
-170 -376 -122 -367 -173 -673 -173 -1030 0 -310 39 -582 121 -847 17 -53 30
-102 30 -110 0 -24 77 -210 137 -333 103 -209 163 -317 218 -391 30 -39 64
-89 76 -110 13 -22 41 -60 63 -85 40 -44 140 -161 161 -187 12 -14 174 -173
221 -217 18 -16 65 -55 105 -85 39 -30 90 -71 113 -91 23 -20 75 -55 116 -79
41 -24 100 -60 130 -80 171 -114 575 -282 815 -338 173 -41 428 -75 640 -87
174 -10 532 23 707 64 20 5 39 7 41 4 17 -17 495 143 615 206 9 5 52 25 95 45
43 20 132 70 198 111 66 41 122 75 125 75 9 0 193 140 245 186 27 24 53 44 58
44 19 0 371 365 371 384 0 4 22 33 48 64 50 58 172 227 172 238 0 4 29 54 64
113 64 108 124 221 144 276 6 17 31 82 55 145 91 234 159 495 178 679 17 170
23 546 10 701 -21 258 -76 499 -169 745 -24 66 -51 137 -59 158 -61 170 -272
526 -394 667 -27 31 -49 61 -49 66 0 18 -254 282 -353 366 -137 117 -240 197
-254 197 -6 1 -25 12 -41 26 -45 38 -304 195 -321 195 -9 0 -45 16 -81 36
-281 153 -725 267 -1140 293 -180 12 -176 12 -364 0z m194 -508 l0 -319 25
-16 c27 -18 81 -21 119 -6 l26 9 2 323 3 323 50 -4 c61 -4 80 -13 220 -106
121 -81 336 -285 435 -414 74 -97 127 -123 176 -87 19 14 19 15 0 48 -56 96
-295 365 -371 418 -42 29 -98 81 -92 86 7 7 242 -74 327 -113 173 -78 489
-307 619 -449 30 -32 81 -88 113 -124 86 -94 225 -290 281 -395 115 -218 198
-405 217 -490 5 -22 25 -96 45 -165 31 -110 65 -270 65 -308 0 -9 -14 -4 -43
13 -41 23 -53 25 -174 25 l-130 0 -9 150 c-9 137 -12 151 -34 175 -35 38 -90
35 -125 -7 -25 -30 -26 -36 -21 -107 3 -42 8 -119 11 -171 7 -118 22 -177 49
-195 16 -12 58 -15 186 -16 l165 -1 80 -85 80 -85 -1 -152 c-2 -247 -34 -482
-99 -720 -19 -69 -35 -129 -35 -131 0 -3 -6 -5 -14 -5 -13 0 -69 47 -193 161
-24 21 -45 39 -48 39 -3 0 -5 -37 -5 -83 l0 -83 100 -93 c55 -51 100 -98 100
-106 0 -7 -11 -35 -24 -62 -13 -26 -40 -82 -60 -123 -68 -146 -136 -262 -213
-366 -43 -57 -82 -113 -88 -122 -5 -10 -30 -40 -55 -67 -170 -187 -270 -279
-278 -257 -2 7 -33 61 -68 120 -64 105 -113 161 -225 255 l-56 47 15 60 c13
54 13 62 -2 85 -28 42 -78 27 -102 -31 -8 -19 -20 -34 -26 -34 -7 0 -53 20
-104 45 -134 65 -218 90 -419 125 -214 37 -579 61 -624 40 -29 -13 -31 -14
-146 -30 -108 -15 -204 -37 -240 -55 -51 -24 -234 -105 -238 -105 -2 0 -12 20
-21 45 -19 49 -30 53 -82 29 -38 -18 -43 -42 -19 -84 23 -41 18 -55 -38 -93
-95 -66 -218 -196 -286 -304 -18 -29 -38 -53 -44 -53 -17 0 -184 177 -248 261
-176 233 -185 249 -324 529 -58 118 -69 146 -110 281 -17 56 -17 57 6 89 13
18 62 63 109 101 47 37 101 81 120 97 19 15 59 43 88 61 56 36 62 52 37 101
-23 45 -42 50 -85 26 -54 -31 -185 -131 -259 -198 -35 -32 -68 -58 -72 -58
-24 0 -75 311 -88 536 -6 99 -7 231 -3 296 8 112 9 117 38 141 126 105 185
150 264 200 85 55 90 60 90 93 0 49 -36 81 -92 81 -53 1 -64 -5 -158 -76 -103
-79 -101 -78 -94 -39 17 97 62 257 132 473 32 101 196 422 275 540 118 176
344 420 513 553 92 72 321 216 409 256 86 39 362 136 389 136 6 0 -14 -21 -44
-47 -111 -96 -190 -177 -270 -277 -117 -147 -169 -226 -163 -245 11 -31 36
-51 64 -51 22 0 37 12 73 60 25 33 46 64 46 68 0 33 294 340 370 387 25 15 55
36 66 47 12 11 55 37 95 58 56 30 86 40 122 40 l47 0 0 -319z m-1504 -163
c-68 -68 -156 -163 -196 -213 -40 -49 -76 -91 -81 -93 -5 -2 -9 -8 -9 -12 0
-5 -45 -77 -99 -160 -55 -83 -105 -168 -112 -188 -6 -20 -22 -55 -35 -77 -37
-64 -129 -292 -162 -400 -48 -156 -112 -462 -112 -532 0 -19 -30 -56 -108
-137 -112 -115 -212 -233 -247 -291 -78 -130 -123 -209 -151 -265 l-33 -65 0
114 c-2 237 48 535 134 811 61 193 77 233 152 380 137 268 151 291 275 453 37
49 68 93 68 96 0 4 15 23 34 42 18 19 71 75 117 125 106 115 310 293 408 357
42 27 85 58 97 68 22 21 164 109 176 109 4 0 -49 -55 -116 -122z m3509 -345
c114 -111 231 -245 285 -323 14 -19 35 -46 47 -60 13 -14 23 -28 23 -32 0 -4
32 -58 71 -120 77 -121 149 -257 149 -280 0 -8 4 -18 9 -23 28 -31 138 -326
181 -488 40 -150 79 -503 80 -709 0 -164 -6 -189 -31 -127 -10 24 -18 53 -18
65 -1 33 -125 269 -187 357 -19 26 -34 50 -34 53 0 4 -29 46 -64 93 l-64 86
-12 105 c-14 125 -44 303 -65 380 -8 30 -15 66 -15 80 0 21 -67 235 -95 303
-6 14 -2 17 27 17 54 0 70 17 66 75 -3 43 -7 52 -31 63 -35 17 -79 2 -94 -31
-9 -20 -14 -13 -47 58 -70 153 -100 209 -178 327 -43 65 -78 122 -78 127 0 4
-10 19 -23 32 -13 13 -48 56 -79 94 -30 39 -62 76 -71 84 -10 7 -17 18 -17 23
0 16 138 -103 265 -229z m-4338 -1771 c4 -229 32 -447 84 -654 29 -117 27
-129 -36 -205 -30 -37 -55 -71 -55 -75 0 -25 -23 1 -59 67 -33 61 -39 81 -34
110 3 20 0 53 -7 74 -9 29 -9 58 -1 130 11 84 15 97 41 121 52 48 28 120 -40
120 -61 0 -90 -65 -49 -109 20 -21 21 -30 15 -105 -9 -109 -12 -119 -46 -138
-55 -31 -51 -114 6 -133 38 -12 64 -33 64 -51 0 -8 15 -43 32 -79 32 -64 32
-67 16 -93 -48 -75 -121 -252 -149 -357 l-27 -100 -22 50 c-58 131 -136 364
-171 510 -22 94 -15 183 26 346 48 188 108 323 213 474 30 44 64 94 76 110 23
34 108 125 116 125 3 0 6 -62 7 -138z m4859 -143 c29 -46 53 -90 53 -96 1 -7
19 -52 40 -100 43 -95 94 -261 110 -358 5 -33 15 -114 21 -181 10 -114 10
-124 -11 -180 -12 -32 -23 -60 -25 -62 -1 -2 -12 6 -23 17 -24 24 -67 27 -93
7 -13 -9 -18 -27 -18 -58 0 -56 25 -83 70 -76 30 4 39 -8 22 -27 -5 -6 -17
-30 -26 -55 -39 -100 -99 -230 -107 -230 -5 0 -9 14 -9 31 0 94 -125 381 -204
469 -51 57 -51 49 -7 185 23 69 41 136 41 148 0 13 7 50 16 82 36 139 74 408
74 527 0 35 4 48 12 46 7 -3 36 -42 64 -89z m-4657 -901 c24 -57 57 -132 73
-167 27 -60 28 -64 12 -82 -18 -21 -21 -73 -5 -93 5 -6 15 -127 22 -269 12
-241 11 -258 -5 -276 -38 -42 -12 -131 38 -131 12 0 59 -35 114 -86 76 -71 92
-91 92 -115 0 -34 16 -70 36 -82 15 -9 17 -58 6 -120 l-7 -38 -30 28 c-17 15
-56 48 -85 73 -83 68 -310 305 -354 369 -21 31 -55 76 -75 101 -21 25 -62 81
-92 125 l-54 80 -4 105 c-4 145 18 243 90 397 22 46 56 108 77 139 20 31 42
64 47 73 29 45 48 71 54 71 4 0 27 -46 50 -102z m4407 -160 c60 -94 77 -134
104 -246 20 -79 22 -110 17 -210 -3 -80 -11 -132 -24 -165 -20 -51 -140 -208
-267 -350 -70 -79 -186 -177 -208 -177 -5 0 -52 -25 -104 -56 -141 -81 -265
-141 -357 -174 -45 -16 -83 -27 -85 -25 -2 2 6 21 17 43 37 72 64 200 64 300
l1 93 75 63 c98 82 223 213 334 348 48 60 87 110 87 113 0 3 35 58 78 123 78
119 113 183 174 320 18 39 36 72 40 72 4 0 28 -32 54 -72z m-2278 -740 l-3
-553 -30 2 c-59 5 -201 80 -233 125 -7 10 -19 18 -27 18 -16 0 -185 178 -185
195 0 7 -8 19 -17 26 -26 22 -185 269 -200 311 -7 20 -33 77 -58 126 -25 50
-45 95 -45 101 0 17 154 90 233 111 40 10 108 29 152 40 98 27 245 48 343 49
l72 1 -2 -552z m417 509 c158 -40 216 -58 294 -91 75 -32 161 -81 161 -93 0
-17 -106 -254 -131 -293 -9 -14 -45 -74 -80 -135 -142 -243 -349 -445 -459
-445 l-30 0 0 543 c0 299 2 546 5 549 7 7 166 -16 240 -35z m-2289 -109 c123
-185 215 -299 359 -444 l123 -124 -11 -75 c-13 -90 0 -199 38 -320 24 -74 93
-206 115 -220 23 -14 9 -27 -22 -21 -113 23 -229 69 -294 117 -38 28 -84 58
-101 67 l-33 16 0 97 c0 87 2 98 19 104 25 8 44 55 35 89 -7 31 -56 60 -84 51
-15 -5 -41 15 -108 81 -89 85 -89 86 -85 128 5 38 2 45 -27 69 l-31 27 -11
230 c-5 127 -7 238 -4 246 12 32 38 8 122 -118z m1034 -253 c61 -121 87 -168
121 -217 11 -15 19 -32 19 -39 0 -27 225 -308 291 -363 44 -38 20 -34 -160 26
-168 55 -289 112 -446 210 -96 61 -215 146 -215 155 0 10 36 73 75 133 67 100
226 243 247 222 4 -4 34 -61 68 -127z m1891 53 c130 -134 219 -268 219 -330 0
-21 -8 -32 -32 -44 -18 -10 -71 -42 -118 -72 -90 -58 -280 -155 -321 -164 -13
-3 -69 -22 -124 -41 -55 -19 -116 -38 -135 -42 l-35 -7 51 53 c84 88 274 366
274 400 0 8 10 30 22 49 24 39 63 118 98 198 13 28 30 52 37 52 7 0 36 -24 64
-52z m-2218 -533 c57 -41 110 -75 118 -75 8 0 19 -4 24 -9 6 -5 57 -34 115
-64 127 -67 290 -134 360 -147 28 -5 78 -17 113 -26 34 -9 120 -26 191 -38
l128 -22 -77 -41 c-106 -58 -178 -81 -308 -98 -118 -16 -384 -19 -427 -5 -16
5 -19 8 -8 9 37 2 51 78 22 119 -19 28 -67 29 -94 2 -22 -22 -27 -79 -8 -98 9
-9 9 -12 -2 -12 -29 0 -129 131 -194 252 -37 68 -66 183 -66 260 0 38 2 68 4
68 3 0 52 -34 109 -75z m2467 -18 c0 -13 -9 -65 -19 -116 -15 -68 -30 -110
-61 -160 -53 -88 -76 -109 -140 -126 -216 -57 -563 -40 -709 34 l-35 19 59 11
c33 7 98 21 145 32 47 11 113 26 148 34 63 14 201 69 303 121 31 16 98 51 150
77 52 26 105 59 119 73 31 30 40 30 40 1z m-1163 -279 c18 -15 16 -78 -4 -100
-24 -27 -87 -24 -107 4 -17 24 -21 65 -8 85 19 31 88 37 119 11z m134 -223
c219 -80 248 -86 458 -94 l164 -6 -49 -31 c-141 -90 -309 -137 -577 -162 -48
-4 -90 -6 -92 -3 -3 2 -5 80 -5 173 l0 169 29 -15 c16 -9 48 -22 72 -31z
m-271 -145 l0 -160 -75 0 c-165 0 -380 32 -557 82 -72 21 -83 38 -26 38 177 0
449 78 594 170 26 16 52 30 56 30 4 0 8 -72 8 -160z"/>
<path d="M3470 7177 c-101 -28 -189 -111 -215 -201 -13 -46 -16 -93 -13 -249
3 -192 3 -192 33 -246 30 -54 82 -104 145 -137 31 -17 63 -19 260 -22 210 -3
229 -2 282 18 66 24 135 86 170 151 22 42 23 53 23 259 0 214 0 215 -27 266
-32 60 -93 118 -157 148 -41 19 -66 21 -251 23 -142 2 -219 -1 -250 -10z m422
-127 c48 -14 97 -55 114 -97 10 -23 14 -82 14 -205 0 -160 -2 -176 -23 -213
-14 -26 -37 -48 -67 -62 -41 -21 -57 -23 -233 -23 -214 0 -245 8 -292 77 -25
37 -25 41 -25 221 0 195 4 214 52 259 48 45 83 52 258 53 91 0 182 -5 202 -10z"/>
<path d="M3558 6924 c-46 -24 -58 -61 -58 -173 0 -167 15 -181 206 -181 l126
0 34 34 34 34 0 101 c0 178 -23 201 -202 201 -80 -1 -121 -5 -140 -16z"/>
<path d="M4361 7173 c-56 -28 -71 -64 -71 -171 0 -144 33 -182 157 -182 78 0
103 15 103 63 0 35 -34 57 -87 57 l-43 0 0 60 0 60 110 0 c97 0 112 2 130 20
11 11 20 31 20 45 0 14 -9 34 -20 45 -18 18 -33 20 -142 20 -94 0 -131 -4
-157 -17z"/>
<path d="M4842 7173 c-34 -30 -37 -59 -8 -88 29 -29 56 -32 84 -7 34 29 37 58
8 87 -29 29 -56 32 -84 8z"/>
<path d="M5102 7174 c-42 -29 -24 -97 30 -109 21 -5 33 -1 52 19 32 31 33 50
1 81 -28 29 -51 31 -83 9z"/>
<path d="M5837 7180 c-85 -21 -163 -84 -205 -164 -27 -51 -27 -52 -27 -266 0
-245 4 -261 91 -346 76 -74 120 -84 358 -84 233 0 277 9 353 68 27 22 61 62
78 93 30 54 30 54 33 246 4 237 -4 275 -78 356 -31 34 -69 63 -102 78 -49 22
-67 24 -258 26 -113 1 -222 -2 -243 -7z m431 -135 c20 -9 47 -26 60 -38 48
-45 52 -64 52 -259 0 -180 0 -184 -25 -221 -47 -69 -78 -77 -291 -77 -170 0
-192 2 -231 21 -81 39 -88 59 -91 259 -2 104 1 189 7 210 13 45 57 87 107 105
58 21 362 20 412 0z"/>
<path d="M5918 6924 c-46 -25 -58 -61 -58 -180 l0 -106 34 -34 34 -34 127 0
c189 0 205 14 205 181 0 167 -24 189 -202 189 -80 -1 -121 -5 -140 -16z"/>
<path d="M5354 7034 c-35 -53 21 -113 80 -86 58 26 36 112 -29 112 -26 0 -39
-6 -51 -26z"/>
<path d="M5014 6921 c-51 -31 -64 -58 -64 -133 0 -58 3 -69 22 -82 51 -36 98
-6 107 67 l6 42 110 3 c97 3 112 6 128 24 23 27 22 53 -5 78 -20 18 -35 20
-147 20 -106 0 -131 -3 -157 -19z"/>
<path d="M4696 6788 c-9 -12 -16 -39 -16 -60 l0 -38 -45 0 c-72 0 -105 -47
-69 -98 13 -19 24 -22 85 -22 121 0 159 34 159 142 0 77 -14 98 -65 98 -24 0
-39 -7 -49 -22z"/>
<path d="M5357 6792 c-15 -16 -17 -48 -17 -245 l0 -227 -45 0 c-51 0 -85 -25
-85 -62 0 -43 35 -68 93 -68 30 0 36 -4 42 -27 9 -40 53 -82 92 -89 31 -6 33
-9 33 -49 0 -28 6 -47 18 -58 25 -22 75 -21 95 1 23 25 23 124 1 162 -19 32
-63 60 -93 60 -21 0 -21 2 -21 294 0 254 -2 297 -16 310 -21 22 -77 20 -97 -2z"/>
<path d="M4310 6670 c-41 -41 -13 -100 47 -100 34 0 63 26 63 58 0 29 -34 62
-65 62 -14 0 -34 -9 -45 -20z"/>
<path d="M4447 6550 c-35 -27 -35 -62 -1 -89 33 -26 58 -27 84 -1 58 58 -19
140 -83 90z"/>
<path d="M4906 6560 c-41 -13 -74 -48 -86 -89 -14 -51 -13 -334 2 -366 22 -48
97 -46 118 4 6 16 10 39 8 52 -3 21 2 24 47 31 50 7 85 34 85 65 0 30 -47 63
-90 63 l-40 0 0 60 0 60 44 0 c36 0 48 5 65 26 26 33 26 45 3 74 -15 18 -31
24 -73 26 -30 2 -67 -1 -83 -6z"/>
<path d="M4306 6418 c-32 -46 -6 -98 49 -98 57 0 85 60 45 100 -27 27 -75 26
-94 -2z"/>
<path d="M4570 6420 c-13 -13 -20 -33 -20 -59 0 -36 -3 -40 -30 -46 -40 -9
-89 -56 -96 -94 l-6 -31 -368 0 c-203 0 -376 -3 -385 -6 -25 -10 -37 -50 -23
-79 12 -26 27 -33 87 -37 30 -3 36 -8 43 -35 20 -78 142 -112 207 -58 16 14
35 41 41 60 l12 35 64 0 64 0 0 -60 0 -60 -39 0 c-75 0 -117 -64 -71 -110 18
-18 33 -20 194 -20 l174 0 7 -30 c8 -36 67 -90 100 -90 18 0 25 -7 30 -30 9
-40 56 -86 96 -94 95 -19 159 3 159 53 0 45 -21 63 -79 69 l-52 5 3 56 3 56
63 3 62 3 0 -30 c0 -47 17 -80 45 -87 58 -14 95 20 95 87 l0 30 63 -3 62 -3 5
-272 5 -272 29 -30 c16 -17 44 -33 62 -37 l32 -6 4 -88 c3 -77 6 -92 27 -114
14 -15 42 -31 63 -38 l38 -11 0 -58 c0 -56 -1 -59 -27 -65 -45 -11 -80 -41
-96 -82 -12 -31 -23 -41 -47 -45 -39 -8 -79 -48 -87 -87 l-6 -31 -65 3 c-64 3
-66 4 -74 34 -10 38 -35 62 -85 79 -27 9 -39 20 -45 40 -10 40 -46 74 -90 85
-37 10 -38 12 -38 55 0 34 -5 47 -22 59 -53 37 -108 4 -108 -64 l0 -40 -65 0
-65 0 0 60 0 60 45 0 c71 0 112 61 69 104 -16 16 -25 19 -79 20 l-30 1 -5 87
c-5 79 -8 90 -35 118 -16 17 -42 34 -57 38 -19 5 -34 20 -50 52 -31 61 -71 80
-170 80 l-78 0 0 60 0 60 104 0 c89 0 107 3 130 21 34 26 34 62 0 88 -23 18
-41 21 -129 21 l-102 0 -15 39 c-23 59 -56 75 -162 81 -73 4 -90 8 -88 20 2 8
1 29 -3 47 -11 61 -95 76 -122 23 -7 -15 -13 -64 -13 -117 l0 -93 -65 0 -65 0
0 43 c0 51 -22 77 -63 77 -44 0 -67 -32 -67 -91 0 -112 43 -151 173 -157 71
-4 90 -8 94 -21 24 -77 53 -95 167 -101 l91 -5 3 -143 c4 -213 12 -220 240
-227 l147 -4 3 -289 c2 -272 3 -290 22 -307 25 -22 65 -22 90 0 17 16 20 31
20 122 l0 103 63 0 62 0 16 -39 c25 -59 58 -75 163 -81 89 -5 90 -5 97 -34 11
-41 47 -75 91 -86 37 -10 38 -12 38 -54 0 -49 22 -76 63 -76 34 0 67 43 67 86
l0 34 65 0 c57 0 65 -2 65 -19 0 -10 9 -30 21 -45 38 -48 67 -56 201 -56 139
0 168 10 168 59 0 38 -27 59 -80 63 l-45 3 -3 63 -3 62 66 0 65 0 0 -40 c0
-30 7 -47 25 -65 28 -29 36 -30 75 -10 25 13 29 22 32 62 l3 48 90 5 c98 5
132 20 156 68 15 31 25 329 14 420 -8 66 -49 118 -101 128 -32 6 -34 8 -34 49
0 50 -22 75 -68 75 -39 0 -62 -31 -62 -82 l0 -38 -65 0 -65 0 0 60 0 60 36 0
c61 0 94 25 94 72 0 36 -33 58 -87 58 -37 0 -43 3 -43 21 0 31 -72 99 -104 99
l-26 0 0 143 c0 124 -3 146 -19 171 -21 32 -56 55 -83 56 -10 0 -25 17 -37 44
-20 46 -47 70 -93 81 -24 6 -28 12 -28 44 0 51 -23 81 -64 81 -44 0 -66 -26
-66 -77 0 -37 -2 -41 -31 -47 -38 -7 -99 -66 -99 -95 0 -19 -6 -21 -70 -21
l-70 0 0 44 c0 49 -24 76 -66 76 -31 0 -64 -45 -64 -86 l0 -34 -195 0 -195 0
0 60 0 60 80 0 c52 0 91 5 110 15 35 18 70 61 70 86 0 12 10 21 28 25 71 18
102 64 102 152 0 44 -5 63 -18 75 -25 23 -68 21 -92 -3z m768 -722 l-3 -123
-62 -3 -63 -3 0 126 0 125 65 0 66 0 -3 -122z m-1178 -438 l0 -60 -65 0 -65 0
0 60 0 60 65 0 65 0 0 -60z m1700 -372 l0 -188 -195 0 -195 0 0 183 c0 101 2
186 4 188 2 2 90 4 195 4 l191 0 0 -187z"/>
<path d="M5620 4930 c-11 -11 -20 -29 -20 -40 0 -50 79 -79 113 -42 54 60 -36
139 -93 82z"/>
<path d="M5097 6422 c-37 -41 -9 -102 46 -102 32 0 67 32 67 60 0 50 -79 79
-113 42z"/>
<path d="M6577 6352 c-10 -11 -17 -35 -17 -61 0 -35 4 -43 25 -53 17 -8 37 -8
62 -2 78 19 63 125 -19 132 -23 2 -39 -3 -51 -16z"/>
<path d="M3257 6172 c-35 -38 -5 -102 48 -102 31 0 65 33 65 63 0 51 -78 77
-113 39z"/>
<path d="M5886 6177 c-11 -8 -20 -31 -23 -60 -5 -40 -9 -47 -33 -52 -36 -8
-78 -47 -91 -84 -9 -25 -16 -29 -57 -34 -111 -12 -107 -127 5 -127 l43 0 0
-38 c0 -52 23 -82 64 -82 54 0 65 21 68 140 l3 105 64 0 63 0 2 -80 c1 -85 17
-123 60 -148 13 -7 82 -14 176 -17 l155 -5 5 -47 c7 -53 14 -64 50 -73 18 -4
34 0 53 15 l27 21 0 148 c0 134 -2 150 -20 166 -48 43 -110 9 -110 -62 l0 -43
-130 0 -130 0 0 65 0 65 89 0 c81 0 92 2 120 25 16 15 36 42 43 60 11 33 15
35 55 35 71 0 110 63 65 103 -26 24 -268 25 -312 2 -30 -16 -60 -61 -60 -90 0
-13 -11 -15 -67 -13 -65 3 -68 4 -69 28 -1 48 -4 59 -20 74 -19 19 -64 21 -88
3z"/>
<path d="M3392 6050 c-42 -39 -16 -100 43 -100 41 0 65 22 65 60 0 54 -67 78
-108 40z"/>
<path d="M3290 5942 c-50 -16 -65 -67 -30 -102 39 -39 110 -11 110 43 0 36
-47 70 -80 59z"/>
<path d="M5626 5679 c-15 -12 -26 -30 -26 -44 0 -26 42 -65 69 -65 30 0 61 30
61 58 0 33 -8 45 -37 61 -30 15 -36 14 -67 -10z"/>
<path d="M3256 5548 c-13 -19 -16 -58 -16 -223 0 -227 5 -245 64 -245 56 0 66
22 66 138 l0 102 36 0 c59 0 94 25 94 68 0 37 -34 62 -85 62 l-45 0 0 43 c0
52 -22 77 -68 77 -21 0 -36 -7 -46 -22z"/>
<path d="M4307 5552 c-37 -41 -9 -102 46 -102 56 0 88 68 49 103 -25 22 -75
21 -95 -1z"/>
<path d="M4844 5562 c-25 -16 -34 -50 -22 -77 20 -45 78 -47 110 -4 17 23 18
30 8 50 -16 31 -29 39 -60 39 -14 0 -30 -4 -36 -8z"/>
<path d="M5894 5562 c-19 -13 -34 -50 -34 -86 0 -73 39 -130 102 -146 30 -9
38 -16 38 -33 0 -32 55 -85 96 -93 l34 -6 0 -83 c0 -75 3 -87 25 -114 47 -55
125 -64 185 -21 79 57 56 183 -41 211 l-39 12 0 59 0 58 65 0 65 0 0 -40 c0
-47 27 -80 65 -80 14 0 34 9 45 20 27 27 28 122 1 166 -17 28 -73 64 -100 64
-6 0 -11 18 -11 40 0 48 -27 80 -68 80 -40 0 -62 -28 -62 -79 l0 -42 -131 3
-131 3 -3 38 c-1 20 -10 46 -20 57 -18 20 -60 26 -81 12z"/>
<path d="M4459 5443 c-20 -5 -42 -45 -37 -68 1 -10 15 -27 29 -37 62 -47 134
37 79 92 -19 19 -37 23 -71 13z"/>
<path d="M3650 5300 c-17 -17 -20 -33 -20 -99 0 -93 16 -122 68 -123 55 -2 67
20 67 123 0 78 -3 93 -19 105 -28 20 -73 17 -96 -6z"/>
<path d="M4564 5294 c-37 -55 25 -116 84 -83 56 31 32 109 -34 109 -25 0 -38
-7 -50 -26z"/>
<path d="M4830 5300 c-13 -13 -20 -33 -20 -59 0 -36 -3 -40 -30 -46 -86 -19
-135 -161 -75 -220 48 -49 105 -21 105 51 0 24 3 45 8 45 4 1 56 2 116 4 100
2 111 4 128 25 23 29 23 41 -3 74 -16 21 -29 26 -63 26 l-43 0 -6 47 c-3 29
-12 52 -23 60 -26 19 -71 16 -94 -7z"/>
<path d="M6681 5257 c-24 -39 -25 -48 -11 -99 10 -34 14 -37 53 -40 l42 -3 0
-127 c0 -118 2 -129 22 -150 32 -32 86 -30 120 4 29 30 29 24 25 245 -2 134
-3 143 -26 170 -23 26 -30 28 -114 31 l-89 4 -22 -35z m190 -297 c29 -16 26
-67 -5 -81 -34 -16 -66 3 -66 41 0 41 33 60 71 40z"/>
<path d="M3443 4932 c-75 -27 -136 -81 -172 -154 l-31 -61 0 -193 c0 -170 2
-200 20 -248 26 -69 85 -130 158 -164 56 -27 59 -27 282 -27 225 0 225 0 281
27 67 34 121 85 151 147 22 43 23 58 23 256 0 194 -2 214 -21 256 -28 60 -86
118 -149 149 -48 23 -60 25 -270 27 -192 3 -226 1 -272 -15z m488 -135 c27
-15 52 -38 66 -63 21 -36 23 -51 23 -214 0 -198 -6 -220 -73 -274 l-39 -31
-185 -3 c-154 -3 -193 -1 -229 13 -46 18 -100 71 -110 108 -3 13 -4 104 -2
203 3 170 4 181 27 213 44 61 82 71 292 71 175 0 188 -1 230 -23z"/>
<path d="M3548 4683 c-38 -24 -48 -60 -48 -179 0 -100 1 -105 29 -136 l29 -33
125 -3 c196 -5 221 19 215 206 -3 103 -3 104 -36 133 -32 29 -33 29 -160 29
-102 0 -132 -4 -154 -17z"/>
<path d="M4839 4933 c-27 -31 -30 -41 -17 -67 21 -48 95 -47 117 1 10 23 9 30
-7 52 -24 32 -72 39 -93 14z"/>
<path d="M5097 4932 c-37 -41 -9 -102 46 -102 32 0 67 32 67 60 0 50 -79 79
-113 42z"/>
<path d="M6410 4930 c-17 -17 -20 -33 -20 -104 0 -88 8 -108 50 -121 20 -6 59
9 72 29 4 6 8 48 8 94 0 91 -16 122 -65 122 -14 0 -34 -9 -45 -20z"/>
<path d="M4980 4817 c-18 -9 -26 -22 -28 -48 -3 -39 8 -54 50 -64 21 -5 33 -1
52 19 31 30 32 46 9 74 -24 27 -53 34 -83 19z"/>
<path d="M6335 4566 c-38 -17 -64 -46 -74 -82 l-7 -29 -161 -5 c-153 -5 -163
-6 -187 -29 -14 -13 -30 -39 -36 -57 -11 -32 -15 -34 -55 -34 -66 0 -102 -48
-71 -95 15 -23 23 -25 95 -25 71 0 83 3 110 26 17 14 35 40 39 57 8 31 9 32
75 35 62 3 67 1 67 -18 0 -47 60 -100 115 -100 35 0 32 -14 -19 -68 -61 -66
-116 -141 -116 -158 0 -8 9 -23 20 -34 18 -18 33 -20 188 -20 151 0 171 2 185
18 15 16 17 51 17 278 0 242 -1 261 -20 292 -33 54 -104 75 -165 48z m51 -433
c-10 -10 -19 5 -10 18 6 11 8 11 12 0 2 -7 1 -15 -2 -18z"/>
<path d="M4696 4428 c-11 -16 -16 -46 -16 -98 0 -92 15 -120 65 -120 55 0 65
19 65 120 0 101 -10 120 -65 120 -24 0 -39 -7 -49 -22z"/>
<path d="M6592 4350 c-40 -17 -51 -83 -18 -115 34 -34 109 -15 120 31 8 32
-17 80 -46 88 -28 7 -27 7 -56 -4z"/>
<path d="M4440 4310 c-13 -13 -20 -33 -20 -59 0 -38 0 -38 -45 -44 -78 -8
-110 -63 -63 -107 20 -18 35 -20 173 -20 170 0 195 8 195 61 0 44 -31 69 -85
69 l-45 0 0 44 c0 35 -5 48 -22 60 -31 22 -64 20 -88 -4z"/>
<path d="M5102 4314 c-27 -19 -29 -64 -4 -87 60 -55 149 26 92 83 -24 24 -57
26 -88 4z"/>
<path d="M4852 4200 c-43 -18 -48 -78 -9 -105 28 -20 50 -19 77 3 56 46 1 129
-68 102z"/>
<path d="M5366 4189 c-31 -25 -34 -61 -6 -89 17 -17 33 -20 110 -20 99 0 130
15 130 64 0 45 -42 66 -130 66 -63 0 -82 -4 -104 -21z"/>
<path d="M6032 4200 c-43 -18 -48 -78 -9 -105 32 -22 63 -18 86 11 26 32 26
46 4 72 -22 25 -51 33 -81 22z"/>
<path d="M2401 6356 c-7 -8 -15 -30 -18 -49 -7 -43 22 -77 65 -77 62 0 91 63
52 113 -24 30 -79 38 -99 13z"/>
<path d="M7409 5910 c-9 -5 -22 -23 -29 -40 -11 -28 -11 -34 7 -58 25 -33 76
-41 104 -16 27 24 24 70 -6 99 -25 26 -49 31 -76 15z"/>
<path d="M7052 3773 c-7 -3 -19 -18 -28 -34 -26 -51 6 -109 60 -109 37 0 49 7
65 37 17 34 13 62 -14 88 -23 23 -53 30 -83 18z"/>
<path d="M6731 3514 c-42 -53 -16 -114 49 -114 65 0 91 61 49 114 -13 17 -30
26 -49 26 -19 0 -36 -9 -49 -26z"/>
<path d="M6662 3164 c-16 -11 -22 -25 -22 -55 0 -67 56 -100 108 -63 30 21 32
108 3 124 -28 14 -63 12 -89 -6z"/>
<path d="M4592 3629 c-44 -17 -48 -81 -7 -122 23 -24 52 -21 80 8 25 24 33 68
17 93 -12 18 -64 31 -90 21z"/>
<path d="M4516 3339 c-30 -24 -35 -72 -10 -107 19 -28 74 -30 97 -4 24 26 22
83 -3 110 -26 28 -50 28 -84 1z"/>
<path d="M5332 3460 c-31 -13 -46 -56 -32 -91 25 -59 106 -58 131 2 15 38 0
75 -37 89 -30 12 -32 12 -62 0z"/>
<path d="M5231 3224 c-40 -51 -16 -114 43 -114 54 0 86 52 61 99 -25 49 -72
55 -104 15z"/>
<path d="M3890 3320 c-43 -43 -13 -130 45 -130 36 0 65 33 65 75 0 42 -29 75
-65 75 -14 0 -34 -9 -45 -20z"/>
<path d="M1439 5587 c-29 -13 -549 -530 -567 -564 -16 -30 -15 -88 2 -121 8
-15 140 -151 293 -304 237 -235 283 -277 315 -283 88 -17 168 52 168 143 0 48
-43 101 -245 303 -108 109 -195 203 -193 208 1 6 94 102 204 213 111 112 206
213 213 225 17 34 13 95 -9 131 -33 54 -118 77 -181 49z"/>
<path d="M8104 5590 c-74 -30 -99 -140 -47 -209 15 -20 106 -115 203 -212 96
-96 181 -182 188 -192 12 -14 -9 -38 -176 -204 -219 -219 -252 -259 -252 -315
0 -95 80 -163 170 -143 25 5 97 71 300 274 147 147 277 283 289 302 22 36 27
92 12 131 -12 31 -537 557 -568 569 -30 11 -91 11 -119 -1z"/>
<path d="M1617 3723 c-15 -15 -7 -63 13 -73 40 -21 72 17 54 64 -6 16 -54 22
-67 9z"/>
<path d="M7947 3702 c-30 -33 -15 -72 28 -72 43 0 59 44 27 73 -24 22 -35 21
-55 -1z"/>
<path d="M1683 3579 c-68 -33 -123 -62 -123 -65 0 -10 31 -64 37 -64 5 0 251
127 261 135 9 7 -24 55 -37 55 -9 0 -71 -27 -138 -61z"/>
<path d="M7797 3590 c-24 -19 -87 -122 -87 -142 0 -5 29 -22 63 -38 35 -16 91
-45 125 -64 73 -43 85 -44 101 -9 11 24 10 29 -6 41 -10 7 -28 15 -41 19 -14
3 -22 12 -20 22 3 13 14 15 60 13 54 -3 57 -2 72 27 24 45 20 51 -31 51 -54 0
-61 4 -87 43 -18 29 -70 57 -104 57 -11 0 -31 -9 -45 -20z m80 -76 c6 -17 -12
-64 -25 -64 -4 0 -17 6 -27 14 -18 13 -18 15 -2 40 19 29 45 34 54 10z"/>
<path d="M1785 3520 c-33 -22 -84 -53 -112 -70 -65 -39 -67 -42 -44 -71 l18
-23 37 22 c21 12 41 20 46 17 13 -8 4 -41 -20 -76 -19 -26 -21 -34 -10 -60 19
-44 26 -44 59 4 27 40 34 44 70 44 73 0 133 65 117 126 -12 45 -66 127 -84
126 -9 0 -44 -18 -77 -39z m77 -85 c9 -21 9 -29 -4 -41 -14 -14 -18 -13 -44
10 -29 24 -29 25 -9 40 29 22 44 20 57 -9z"/>
<path d="M7668 3388 c-13 -18 -37 -59 -53 -91 -30 -57 -30 -58 -10 -72 11 -8
26 -19 32 -25 7 -6 23 -14 35 -19 13 -5 54 -30 93 -54 38 -25 73 -43 77 -41 4
3 17 24 28 47 11 23 33 60 50 82 16 22 29 42 30 45 0 3 -14 14 -31 24 -36 21
-30 26 -74 -59 -11 -21 -26 -41 -32 -43 -24 -7 -25 28 -3 70 21 40 21 43 4 55
-31 22 -50 15 -69 -27 -19 -41 -23 -44 -49 -34 -23 9 -20 22 19 84 40 62 41
66 18 74 -10 3 -23 8 -30 12 -6 3 -22 -10 -35 -28z"/>
<path d="M1949 3337 c-15 -12 -67 -48 -118 -79 -50 -32 -91 -61 -91 -65 0 -5
9 -19 19 -32 l18 -24 29 20 c16 11 38 23 49 27 41 15 164 102 164 116 1 17
-26 60 -37 60 -4 0 -19 -11 -33 -23z"/>
<path d="M1990 3242 c-19 -16 -72 -52 -117 -81 -87 -56 -87 -55 -49 -104 14
-18 17 -17 62 17 26 20 49 34 51 32 3 -3 0 -35 -7 -73 -6 -37 -14 -86 -17
-108 l-6 -40 29 26 c16 15 49 39 74 54 74 46 160 115 160 129 0 8 -8 24 -18
37 l-19 22 -54 -41 c-29 -22 -56 -39 -60 -36 -4 2 0 36 7 76 16 82 18 118 6
118 -4 0 -23 -13 -42 -28z"/>
<path d="M7533 3178 c-16 -18 -46 -55 -66 -82 l-37 -49 58 -43 c31 -24 61 -44
65 -44 5 0 34 -21 65 -46 l57 -46 25 32 c14 17 44 55 67 83 l43 52 -26 23
c-14 12 -29 22 -33 22 -5 0 -26 -25 -46 -55 -21 -30 -44 -55 -52 -55 -20 0
-16 38 9 78 21 34 21 35 3 48 -27 20 -32 18 -61 -25 -23 -35 -28 -38 -45 -28
-26 16 -25 21 20 80 37 48 39 53 24 69 -23 25 -35 23 -70 -14z"/>
<path d="M2154 3039 c-16 -17 -51 -46 -79 -65 -71 -48 -118 -91 -114 -103 8
-21 131 -151 143 -151 7 0 21 9 31 20 17 19 16 21 -28 74 -41 47 -45 55 -31
67 12 10 21 6 52 -24 l38 -37 21 22 22 21 -31 38 c-16 20 -27 42 -23 48 13 22
41 9 75 -34 39 -50 48 -53 81 -26 l23 18 -74 82 c-41 44 -74 81 -75 81 -1 0
-14 -14 -31 -31z"/>
<path d="M7396 2995 c-16 -24 -15 -25 30 -67 53 -49 48 -55 -51 -58 -33 -1
-71 -5 -84 -9 -24 -6 -22 -9 39 -61 35 -30 85 -74 110 -97 26 -24 51 -43 56
-43 5 0 18 12 28 27 19 26 19 26 -5 46 -13 11 -33 25 -43 33 -11 7 -17 17 -13
21 4 4 50 10 102 13 52 3 97 9 100 12 12 11 -223 208 -249 208 -2 0 -11 -11
-20 -25z"/>
<path d="M2297 2816 c-75 -27 -112 -82 -105 -156 9 -86 70 -140 162 -140 37 0
52 6 82 32 94 83 81 204 -29 257 -50 24 -59 25 -110 7z m80 -72 c44 -12 52
-84 15 -126 -35 -40 -122 -1 -122 54 0 32 25 66 53 71 12 2 24 5 27 6 3 0 15
-2 27 -5z"/>
<path d="M7220 2805 l-24 -25 25 -17 c13 -10 62 -54 109 -100 l85 -82 24 23
24 24 -32 39 c-36 45 -165 163 -179 163 -4 0 -19 -11 -32 -25z"/>
<path d="M7160 2743 c-23 -8 -70 -55 -86 -85 -8 -15 -14 -47 -14 -72 0 -75 77
-146 157 -146 21 1 47 6 59 13 36 21 114 91 114 102 -1 5 -27 38 -59 72 l-58
63 -42 -39 c-45 -42 -47 -48 -27 -76 12 -16 16 -17 30 -6 19 16 46 8 46 -13 0
-37 -87 -49 -120 -16 -33 33 -26 74 21 124 36 40 39 47 27 65 -13 21 -21 24
-48 14z"/>
<path d="M2543 2615 c-12 -8 -26 -30 -33 -49 -9 -29 -7 -41 19 -96 17 -35 28
-67 25 -72 -14 -23 -64 12 -64 45 0 17 -36 47 -57 47 -7 0 -15 -16 -19 -35 -8
-42 21 -94 70 -124 56 -35 103 -24 131 29 17 33 9 84 -22 144 -10 20 -12 31
-4 39 14 14 41 -9 41 -37 0 -13 12 -28 32 -39 31 -18 33 -18 45 -1 30 40 1 97
-71 139 -50 29 -64 31 -93 10z"/>
<path d="M6958 2556 c-23 -17 -23 -29 2 -51 11 -10 27 -32 35 -48 l15 -30 -83
7 c-45 4 -90 9 -99 12 -31 9 -20 -15 40 -88 31 -39 71 -88 87 -109 34 -43 45
-47 68 -21 23 25 21 34 -8 62 -27 25 -33 50 -12 50 6 0 52 -5 100 -11 49 -6
91 -8 94 -5 3 3 -28 45 -69 93 -146 171 -137 164 -170 139z"/>
<path d="M2786 2373 c-26 -38 -65 -93 -87 -123 l-40 -54 23 -18 c28 -22 47
-23 55 -3 3 9 19 23 36 31 l30 16 -7 -61 c-7 -59 -6 -60 22 -75 34 -17 42 -13
42 22 0 14 5 53 11 86 l10 62 58 22 c31 12 61 22 65 22 5 0 6 -42 3 -93 -4
-78 -10 -103 -34 -146 l-28 -51 25 -20 c14 -11 28 -20 32 -20 9 0 48 69 48 85
0 8 19 24 43 36 23 12 61 35 85 51 24 17 46 28 48 25 3 -3 -22 -56 -55 -119
-34 -63 -61 -122 -61 -130 0 -9 8 -18 18 -22 9 -3 22 -9 29 -12 7 -3 21 12 33
35 11 23 27 41 35 41 17 0 19 -8 16 -61 -2 -29 3 -41 25 -58 15 -11 30 -21 34
-21 5 0 11 24 15 53 6 42 13 57 41 80 56 46 64 118 18 159 -23 20 -188 108
-203 108 -6 0 -29 -11 -51 -25 -22 -14 -40 -22 -41 -18 0 5 0 29 1 55 1 47 1
48 -54 83 -64 40 -78 42 -140 15 -53 -22 -57 -13 -19 37 l27 35 -25 19 c-13
10 -27 19 -30 19 -4 0 -27 -30 -53 -67z m539 -328 c0 -10 -8 -23 -17 -29 -14
-8 -22 -6 -38 9 -19 19 -19 22 -4 43 14 21 18 22 37 9 12 -8 22 -22 22 -32z"/>
<path d="M6708 2372 c-37 -26 -74 -52 -84 -58 -15 -9 -9 -21 54 -115 108 -157
90 -145 158 -105 33 19 73 45 91 58 l32 24 -21 32 -20 32 -56 -40 c-30 -22
-61 -40 -68 -40 -28 0 -20 27 18 61 37 33 39 37 27 57 -18 29 -37 28 -71 -5
-27 -26 -29 -26 -46 -9 -16 16 -16 18 3 31 92 64 95 68 75 106 -6 10 -14 19
-18 18 -4 0 -37 -21 -74 -47z"/>
<path d="M6413 2194 c-95 -52 -98 -59 -54 -131 15 -27 45 -78 65 -115 20 -38
42 -68 49 -68 7 0 45 20 86 45 41 24 79 46 84 48 15 5 -11 67 -27 67 -7 0 -34
-14 -60 -31 -27 -16 -55 -28 -62 -25 -15 6 -20 36 -6 36 4 0 22 12 40 28 31
25 32 28 17 49 l-15 21 -38 -21 c-39 -21 -72 -19 -72 6 0 7 25 25 55 41 30 15
57 31 60 36 8 13 -13 60 -27 60 -7 -1 -50 -21 -95 -46z"/>
<path d="M6210 2094 c-91 -30 -100 -36 -100 -63 0 -22 98 -242 116 -260 4 -4
64 19 64 26 0 2 -7 20 -15 40 -9 22 -12 40 -6 46 10 10 52 -9 64 -29 10 -17
38 -18 71 -3 l25 12 -43 38 c-37 33 -42 42 -38 69 8 52 -16 107 -51 120 -31
10 -61 12 -87 4z m67 -80 c8 -21 -7 -45 -35 -55 -19 -7 -25 -4 -34 17 -11 22
-9 28 7 40 25 19 54 18 62 -2z"/>
<path d="M3444 2058 c-4 -13 -31 -74 -60 -136 l-53 -113 34 -16 c19 -9 36 -15
39 -12 12 14 86 177 86 190 0 9 7 30 16 48 15 30 15 33 -2 46 -28 21 -52 18
-60 -7z"/>
<path d="M3530 2014 c-14 -36 -13 -38 20 -51 l31 -12 -17 -38 c-9 -21 -28 -69
-42 -107 -25 -67 -25 -69 -7 -82 23 -17 65 -18 65 -3 0 11 69 190 76 198 2 2
16 -1 30 -8 30 -13 40 -8 49 30 6 25 3 28 -84 63 -50 20 -96 36 -101 36 -6 0
-15 -12 -20 -26z"/>
<path d="M5967 1946 c-4 -44 -7 -123 -7 -178 0 -106 2 -108 54 -88 14 5 26 16
26 25 0 18 43 37 80 37 14 0 40 4 58 10 l32 10 -49 56 c-27 32 -81 91 -119
132 l-69 74 -6 -78z m99 -145 c-13 -20 -26 -11 -26 16 0 25 1 26 16 11 9 -9
13 -21 10 -27z"/>
<path d="M5823 1940 c-20 -8 -23 -17 -23 -65 0 -30 -3 -55 -6 -55 -3 0 -28 19
-55 42 -27 22 -51 39 -54 36 -2 -2 -8 -29 -12 -59 l-8 -54 -30 42 c-22 31 -37
43 -56 43 -28 0 -258 -38 -269 -45 -4 -2 -5 -18 -2 -35 4 -27 8 -30 41 -30
l37 0 18 -107 c11 -60 20 -111 22 -114 2 -3 17 -4 34 -1 26 4 30 8 30 36 -1
17 -7 60 -15 96 -22 98 -20 108 18 118 25 7 31 14 30 30 -2 12 1 22 5 22 9 0
136 -208 156 -255 9 -20 24 18 36 91 7 41 15 74 19 74 3 0 31 -27 63 -60 31
-33 61 -60 67 -60 7 0 11 34 11 93 0 50 3 122 7 160 6 66 6 67 -18 66 -13 0
-34 -4 -46 -9z"/>
<path d="M3765 1915 c-45 -44 -30 -101 41 -153 29 -21 44 -40 42 -50 -5 -24
-46 -17 -74 13 -13 14 -34 25 -49 25 -20 0 -25 -5 -25 -26 0 -39 16 -60 60
-78 51 -20 104 -20 135 0 21 14 25 24 25 65 0 45 -3 50 -50 90 -27 23 -50 48
-50 56 0 22 41 15 66 -12 13 -14 34 -25 49 -25 21 0 25 5 25 28 0 74 -141 122
-195 67z"/>
<path d="M3991 1843 c-5 -21 -21 -83 -35 -137 -29 -107 -27 -116 25 -116 28 0
34 15 79 195 21 87 18 95 -32 95 -23 0 -29 -6 -37 -37z"/>
<path d="M4123 1851 c-28 -12 -43 -41 -43 -82 0 -25 9 -41 41 -70 23 -21 50
-41 60 -44 31 -10 23 -35 -11 -35 -20 0 -30 5 -30 15 0 11 -12 15 -46 15 -42
0 -45 -1 -39 -22 26 -84 154 -116 205 -51 41 52 24 97 -56 148 -30 20 -54 41
-51 48 6 20 44 20 59 -1 18 -26 86 -39 94 -17 9 22 -10 61 -39 80 -30 19 -114
28 -144 16z"/>
<path d="M5173 1816 c-46 -7 -85 -15 -88 -17 -4 -5 20 -233 30 -285 4 -19 9
-21 37 -15 32 7 33 8 30 58 l-2 51 45 7 c45 6 46 8 43 38 -3 31 -4 31 -50 28
-47 -2 -48 -2 -48 27 0 28 3 30 52 36 28 4 55 9 58 11 11 7 -2 75 -14 74 -6
-1 -48 -7 -93 -13z"/>
<path d="M4536 1779 c-19 -15 -26 -30 -26 -54 0 -50 8 -63 53 -85 61 -30 91
-56 83 -69 -10 -16 -56 -14 -62 4 -4 10 -20 15 -45 15 -32 0 -39 -4 -39 -19 0
-11 14 -33 31 -50 26 -27 38 -31 83 -31 61 0 90 17 106 64 18 55 1 81 -75 115
-40 18 -65 36 -65 45 0 21 58 22 66 1 4 -10 20 -15 45 -15 36 0 39 2 39 29 0
46 -40 71 -110 71 -43 0 -64 -5 -84 -21z"/>
<path d="M4853 1785 c-45 -19 -86 -86 -86 -138 0 -54 35 -122 73 -142 38 -20
115 -19 150 2 74 43 92 162 36 236 -41 53 -109 70 -173 42z m120 -97 c24 -28
21 -65 -8 -93 -47 -48 -125 -17 -125 50 0 68 88 96 133 43z"/>
<path d="M4372 1668 c-27 -27 -6 -68 35 -68 16 0 24 7 29 25 11 43 -34 73 -64
43z"/>
</g>
</svg>
