<svg xmlns="http://www.w3.org/2000/svg" xmlns:svgjs="http://svgjs.com/svgjs" xmlns:xlink="http://www.w3.org/1999/xlink" width="288" height="288"><svg xmlns="http://www.w3.org/2000/svg" width="288" height="288" version="1.0" viewBox="0 0 512 512"><path fill="#ffbb5c" d="M1115 4604 c-11 -2 -45 -9 -75 -15 -30 -6 -97 -31 -149 -56 -79 -38-109 -59 -177 -127 -68 -69 -89 -98 -127 -177 -59 -123 -72 -181 -71 -314 2
-166 50 -297 160 -431 67 -81 197 -168 307 -203 l37 -13 0 -707 0 -707 -72
-28 c-194 -76 -339 -230 -405 -431 -21 -65 -26 -100 -27 -190 -1 -133 12 -191
71 -314 38 -79 59 -108 127 -177 69 -68 98 -89 177 -127 123 -59 181 -72 314
-71 88 1 125 6 187 26 157 52 280 143 367 273 59 89 88 162 108 275 28 155
-13 345 -103 480 -80 119 -223 227 -356 270 l-38 12 0 58 c0 118 70 264 168
350 55 49 166 104 240 119 36 8 341 11 960 11 991 0 963 -1 1081 58 113 57
211 174 253 301 18 57 21 97 26 293 l4 226 60 22 c322 117 506 462 427 798 -6
26 -31 89 -56 141 -38 79 -59 108 -127 177 -69 68 -98 89 -177 127 -121 58
-180 72 -309 72 -187 -1 -340 -65 -476 -200 -133 -132 -198 -289 -198 -480 0
-158 43 -287 138 -412 76 -100 208 -193 329 -233 l38 -12 -3 -216 c-3 -211 -4
-218 -27 -251 -13 -18 -42 -42 -65 -52 -39 -18 -85 -19 -946 -19 -713 -1 -921
-4 -980 -14 -96 -17 -221 -66 -299 -116 l-61 -40 0 354 0 353 61 23 c184 67
328 208 399 390 144 373 -58 781 -445 899 -67 21 -226 36 -270 25z" class="color000 svgShape" transform="matrix(.1 0 0 -.1 0 512)"/></svg></svg>