<svg xmlns="http://www.w3.org/2000/svg" xmlns:svgjs="http://svgjs.com/svgjs" xmlns:xlink="http://www.w3.org/1999/xlink" width="288" height="288"><svg xmlns="http://www.w3.org/2000/svg" width="288" height="288" version="1.0" viewBox="0 0 512 512"><path fill="#ffbb5c" d="M2181 5109 c-618 -35 -1158 -152 -1454 -315 -149 -82 -232 -157 -284-256 l-28 -53 0 -1925 0 -1925 28 -53 c152 -288 722 -489 1602 -564 196 -16
834 -16 1030 0 880 75 1450 276 1602 564 l28 53 0 1925 0 1925 -28 53 c-142
270 -657 466 -1440 547 -319 33 -733 43 -1056 24z m811 -209 c666 -45 1226
-190 1432 -372 55 -47 76 -84 76 -130 0 -158 -413 -340 -980 -432 -585 -96
-1335 -96 -1920 0 -567 92 -980 274 -980 432 0 46 21 83 76 130 203 179 768
327 1414 371 173 12 708 12 882 1z m-2324 -854 c278 -175 819 -304 1454 -346
335 -22 846 -11 1168 26 507 57 931 174 1162 320 21 13 40 24 43 24 3 0 5
-212 5 -471 l0 -471 -62 -62 c-186 -184 -694 -327 -1359 -382 -260 -21 -778
-21 -1038 0 -665 55 -1173 198 -1358 382 l-63 62 0 471 c0 259 2 471 5 471 3
0 22 -11 43 -24z m53 -1258 c201 -112 461 -190 832 -252 315 -53 615 -76 1007
-76 392 0 692 23 1007 76 371 62 631 140 832 252 47 26 89 49 94 50 4 2 7
-208 7 -466 l0 -470 -46 -52 c-173 -192 -757 -354 -1442 -400 -198 -13 -706
-13 -904 0 -685 46 -1269 208 -1442 400 l-46 52 0 470 c0 258 3 468 8 466 4
-1 46 -24 93 -50z m-30 -1213 c256 -156 720 -270 1329 -327 180 -17 900 -17
1080 0 609 57 1073 171 1329 327 32 19 61 35 65 35 3 0 6 -207 6 -460 0 -505
2 -487 -62 -546 -48 -44 -86 -69 -176 -114 -243 -120 -623 -208 -1102 -257
-250 -25 -950 -25 -1200 0 -625 63 -1093 199 -1278 371 -64 59 -62 41 -62 546
0 253 3 460 6 460 4 0 33 -16 65 -35z" class="color000 svgShape" transform="matrix(.1 0 0 -.1 0 512)"/></svg></svg>